<svg xmlns="http://www.w3.org/2000/svg" version="1.1" xmlns:xlink="http://www.w3.org/1999/xlink" xmlns:svgjs="http://svgjs.dev/svgjs" width="300" height="100" viewBox="0 0 1000 600"><rect width="100" height="" x="0" y="0" fill="#234e70"/><g><circle r="166.66666666666666" cx="333.2221323649088" cy="355.44437390735993" fill="#fbf8be" transform="matrix(0.7505006696972529,0,0,0.7505006696972529,0,33.23875551752218)"/><path d="M341.6620456395335 280.44437752309454L341.6620456395335 280.44437752309454Q350.48557539563683 280.44437752309454 358.77202073180337 282.66944154854673Q367.0584660679699 284.85614240114626 373.6952949714737 289.3062704520505L373.6952949714737 289.3062704520505Q380.0635816650091 293.44949312013375 383.3628145303347 298.820337319501Q386.66204739566024 304.1911815188682 386.66204739566024 310.5594682124036L386.66204739566024 310.5594682124036Q386.66204739566024 318.00192374581246 382.51882472757694 322.03005689533785Q378.37560205949364 326.01982687201064 372.0456785388109 326.01982687201064L372.0456785388109 326.01982687201064Q365.94593405524387 326.01982687201064 361.41907965863436 322.4520517967167Q356.8538620891722 318.84591354857014 356.8538620891722 312.20908464506635L356.8538620891722 312.20908464506635Q356.8538620891722 305.8791611243836 360.30654764590827 302.0044806662687Q363.75923320264434 298.12980020815377 368.43954029066435 297.0172681954277L368.43954029066435 297.0172681954277Q365.67739184527545 292.0684188974393 358.6569312132455 288.73082285926114Q351.59810740836286 285.4315899939356 343.5802042821647 285.4315899939356L343.5802042821647 285.4315899939356Q336.67483316869254 285.4315899939356 329.7694620552204 288.73082285926114Q322.8640909417483 292.0684188974393 317.0712518410022 299.66432712225867Q311.27841274025616 307.26023534707804 307.67227449210964 320.38044046267504Q304.1044994168157 333.5006455782721 304.1044994168157 353.10422690596243L304.1044994168157 353.10422690596243Q304.1044994168157 377.38811532167273 309.6287963075934 391.7743051414063Q315.1530931983711 406.1221317882873 324.13007564588486 412.3369657904122Q333.1070580933986 418.5517997925371 343.84874649213305 418.5517997925371L343.84874649213305 418.5517997925371Q351.06102298842615 418.5517997925371 358.503478521835 415.78965134714826Q365.94593405524387 413.0275029017594 372.5827629587476 406.8126688996345Q379.2195918622514 400.5978348975096 383.8998989502714 390.1246887087435L383.8998989502714 390.1246887087435L389.15565363108067 392.0428473513747Q386.3935051856919 400.86637710747794 380.0635816650091 409.8433595549917Q373.6952949714737 418.82034200250547 363.490690992676 424.6515442761042Q353.2477238410257 430.4443833768502 338.32444960135535 430.4443833768502L338.32444960135535 430.4443833768502Q321.2144745090855 430.4443833768502 307.4037322821413 421.5824904478943Q293.592990055197 412.75896069179106 285.45999741044096 396.33952271086844Q277.2886415928323 379.88172155709316 277.2886415928323 357.2474495740457L277.2886415928323 357.2474495740457Q277.2886415928323 334.57481441814554 285.45999741044096 317.31138663446524Q293.592990055197 300.0479588507849 308.247722084899 290.26534977336604Q322.8640909417483 280.44437752309454 341.6620456395335 280.44437752309454Z " fill="#234e70" transform="matrix(0.7505006696972529,0,0,0.7505006696972529,0,33.23875551752218)"/><path d="M627.0265338921917 328.3733699611914L627.0265338921917 328.3733699611914Q633.0307108065144 328.3733699611914 638.6694160825741 329.8874667482815Q644.3081213586338 331.37545841835276 648.8243066028853 334.40365199253296L648.8243066028853 334.40365199253296Q653.1577560280052 337.2230046305628 655.4027960916216 340.87772101319405Q657.6478361552379 344.53243739582535 657.6478361552379 348.86588682094526L657.6478361552379 348.86588682094526Q657.6478361552379 353.93027952259143 654.828483517208 356.6713168095649Q652.0091308791782 359.38624897951956 647.701786571077 359.38624897951956L647.701786571077 359.38624897951956Q643.5510729650887 359.38624897951956 640.4706691568709 356.9584730967717Q637.3641602316343 354.50459209700495 637.3641602316343 349.9884068527534L637.3641602316343 349.9884068527534Q637.3641602316343 345.6810625446523 639.7136207633259 343.04444572575403Q642.0630812950174 340.40782890685574 645.2479055713104 339.6507805133107L645.2479055713104 339.6507805133107Q643.3683371459572 336.2832204178862 638.5911007315177 334.01207523725105Q633.7877592000596 331.76703517363467 628.3317897431314 331.76703517363467L628.3317897431314 331.76703517363467Q623.6328686797483 331.76703517363467 618.9339476163652 334.01207523725105Q614.2350265529822 336.2832204178862 610.2931538831442 341.45203358760756Q606.3512812133062 346.62084675732893 603.8974002135394 355.54879677775676Q601.4696243307915 364.47674679818454 601.4696243307915 377.8164615947887L601.4696243307915 377.8164615947887Q601.4696243307915 394.3410006676858 605.2287611814979 404.13041954973386Q608.9878980322044 413.8937333147631 615.0964954146025 418.12276227180786Q621.2050927970004 422.3517912288526 628.5145255622629 422.3517912288526L628.5145255622629 422.3517912288526Q633.4222875617963 422.3517912288526 638.4866802634426 420.4722228034994Q643.5510729650887 418.59265437814616 648.0672582093403 414.3636254211014Q652.5834434535917 410.13459646405664 655.7682677298847 403.00789951792564L655.7682677298847 403.00789951792564L659.3446687614596 404.3131553688654Q657.4651003361064 410.3173322831882 653.1577560280052 416.4259296655862Q648.8243066028853 422.5345270479841 641.8803454758859 426.502504834841Q634.9102792318677 430.444377504679 624.7553887115564 430.444377504679L624.7553887115564 430.444377504679Q613.112506521174 430.444377504679 603.7146643944079 424.41409547333734Q594.3168222676418 418.40991855901456 588.7825374596573 407.2369284749704Q583.2221475346539 396.03783327390744 583.2221475346539 380.6358142328185L583.2221475346539 380.6358142328185Q583.2221475346539 365.2076900747108 588.7825374596573 353.4603874162531Q594.3168222676418 341.7130847577955 604.2889769688213 335.0562799180028Q614.2350265529822 328.3733699611914 627.0265338921917 328.3733699611914ZM701.269486693644 280.44437511468414L701.269486693644 280.44437511468414L701.269486693644 410.3173322831882Q701.269486693644 418.227182739883 704.5587314380122 421.04653537791285Q707.8479761823803 423.8658880159427 715.5489857029247 423.8658880159427L715.5489857029247 423.8658880159427L715.5489857029247 427.8077606857807Q712.3641614266318 427.62502486664914 705.8639872889519 427.3378685794424Q699.3899182682908 427.0507122922357 692.8114287795545 427.0507122922357L692.8114287795545 427.0507122922357Q686.4156751099498 427.0507122922357 679.8371856212135 427.3378685794424Q673.2586961324772 427.62502486664914 670.0738718561843 427.8077606857807L670.0738718561843 427.8077606857807L670.0738718561843 423.8658880159427Q677.7748813767287 423.8658880159427 681.0641261210968 421.04653537791285Q684.353370865465 418.227182739883 684.353370865465 410.3173322831882L684.353370865465 410.3173322831882L684.353370865465 302.9991962189228Q684.353370865465 294.54113830483334 681.3512824083036 290.49484516692013Q678.3230888341234 286.4746571460257 670.0738718561843 286.4746571460257L670.0738718561843 286.4746571460257L670.0738718561843 282.5066793591689Q676.078048770507 283.0809919335824 681.7167540465667 283.0809919335824L681.7167540465667 283.0809919335824Q687.1727235034948 283.0809919335824 692.1588008540846 282.42836400811257Q697.1187730876557 281.77573608264265 701.269486693644 280.44437511468414ZM746.561864721253 284.02077614625904L746.561864721253 284.02077614625904Q751.4435216037675 284.02077614625904 755.0199226353425 287.5971771778339Q758.5963236669173 291.1735782094088 758.5963236669173 296.0552350919234L758.5963236669173 296.0552350919234Q758.5963236669173 300.936891974438 755.0199226353425 304.51329300601293Q751.4435216037675 308.08969403758783 746.561864721253 308.08969403758783L746.561864721253 308.08969403758783Q741.6802078387384 308.08969403758783 738.1038068071634 304.51329300601293Q734.5274057755886 300.936891974438 734.5274057755886 296.0552350919234L734.5274057755886 296.0552350919234Q734.5274057755886 291.1735782094088 738.1038068071634 287.5971771778339Q741.6802078387384 284.02077614625904 746.561864721253 284.02077614625904ZM756.3251784862822 328.9476825356049L756.3251784862822 328.9476825356049L756.3251784862822 410.3173322831882Q756.3251784862822 418.227182739883 759.6144232306503 421.04653537791285Q762.9036679750185 423.8658880159427 770.6307826125817 423.8658880159427L770.6307826125817 423.8658880159427L770.6307826125817 427.8077606857807Q767.41985321927 427.62502486664914 760.9457841986089 427.3378685794424Q754.445610060929 427.0507122922357 747.8671205721927 427.0507122922357L747.8671205721927 427.0507122922357Q741.4974720196068 427.0507122922357 734.9189825308705 427.3378685794424Q728.3404930421342 427.62502486664914 725.1295636488225 427.8077606857807L725.1295636488225 427.8077606857807L725.1295636488225 423.8658880159427Q732.8305731693669 423.8658880159427 736.119817913735 421.04653537791285Q739.4090626581032 418.227182739883 739.4090626581032 410.3173322831882L739.4090626581032 410.3173322831882L739.4090626581032 351.50250363984355Q739.4090626581032 343.04444572575403 736.4069742009418 338.9981525878408Q733.4048857437804 334.95185944992767 725.1295636488225 334.95185944992767L725.1295636488225 334.95185944992767L725.1295636488225 331.00998678008966Q731.159845680164 331.5842993545031 736.7985509562237 331.5842993545031L736.7985509562237 331.5842993545031Q742.228415296133 331.5842993545031 747.2144926467229 330.90556631201446Q752.2005699973126 330.2529383865446 756.3251784862822 328.9476825356049ZM843.3596386269439 328.3733699611914L843.3596386269439 328.3733699611914Q850.5124406900939 328.3733699611914 855.2896771045332 330.2529383865446Q860.0930186359915 332.1325068118978 863.2778429122845 335.5261720243411L863.2778429122845 335.5261720243411Q866.8542439438593 339.2853088750476 868.3683407309495 344.92401415110726Q869.8563324010207 350.56271942716694 869.8563324010207 360.1432973730646L869.8563324010207 360.1432973730646L869.8563324010207 410.3173322831882Q869.8563324010207 418.227182739883 873.1455771453889 421.04653537791285Q876.434821889757 423.8658880159427 884.1358314103015 423.8658880159427L884.1358314103015 423.8658880159427L884.1358314103015 427.8077606857807Q880.9510071340085 427.62502486664914 874.3725176452722 427.3378685794424Q867.7940281565359 427.0507122922357 861.5810103060628 427.0507122922357L861.5810103060628 427.0507122922357Q855.3940975726084 427.0507122922357 849.468236009342 427.3378685794424Q843.5423744460757 427.62502486664914 840.5402859889141 427.8077606857807L840.5402859889141 427.8077606857807L840.5402859889141 423.8658880159427Q847.3015112967821 423.8658880159427 850.1208639348118 421.04653537791285Q852.9402165728417 418.227182739883 852.9402165728417 410.3173322831882L852.9402165728417 410.3173322831882L852.9402165728417 356.01868888409507Q852.9402165728417 350.17114267188504 852.0004323601651 345.2894857893704Q851.0606481474885 340.40782890685574 847.7714034031203 337.40574044969435Q844.4821586587523 334.40365199253296 837.7209333508844 334.40365199253296L837.7209333508844 334.40365199253296Q829.8371880112084 334.40365199253296 823.911326447942 338.8937321197657Q817.9854648846755 343.4099173640172 814.6962201403073 351.2153473526368Q811.4069753959392 359.0207773412564 811.4069753959392 368.60135528715415L811.4069753959392 368.60135528715415L811.4069753959392 410.3173322831882Q811.4069753959392 418.227182739883 814.226328033969 421.04653537791285Q817.0456806719989 423.8658880159427 823.8069059798668 423.8658880159427L823.8069059798668 423.8658880159427L823.8069059798668 427.8077606857807Q820.8048175227053 427.62502486664914 814.8789559594388 427.3378685794424Q808.9530943961724 427.0507122922357 802.7661816627182 427.0507122922357L802.7661816627182 427.0507122922357Q796.553163812245 427.0507122922357 789.9746743235087 427.3378685794424Q783.3961848347724 427.62502486664914 780.2113605584794 427.8077606857807L780.2113605584794 427.8077606857807L780.2113605584794 423.8658880159427Q787.9123700790238 423.8658880159427 791.2016148233921 421.04653537791285Q794.4908595677603 418.227182739883 794.4908595677603 410.3173322831882L794.4908595677603 410.3173322831882L794.4908595677603 351.50250363984355Q794.4908595677603 343.04444572575403 791.4887711105988 338.9981525878408Q788.4866826534374 334.95185944992767 780.2113605584794 334.95185944992767L780.2113605584794 334.95185944992767L780.2113605584794 331.00998678008966Q786.2155374728022 331.5842993545031 791.8542427488619 331.5842993545031L791.8542427488619 331.5842993545031Q797.31021220579 331.5842993545031 802.2962895563799 330.90556631201446Q807.2823669069696 330.2529383865446 811.4069753959392 328.9476825356049L811.4069753959392 328.9476825356049L811.4069753959392 351.1109268845616Q816.2886322784539 338.34552466237096 825.0338464797501 333.35944731178114Q833.7790606810463 328.3733699611914 843.3596386269439 328.3733699611914ZM922.6669841300426 299.81437194262986L922.6669841300426 299.81437194262986L922.6669841300426 331.1927225992212L950.4950388720779 331.1927225992212L950.4950388720779 334.95185944992767L922.6669841300426 334.95185944992767L922.6669841300426 407.7068205813087Q922.6669841300426 416.53035013366133 925.8779135233543 420.10675116523623Q929.0627377996473 423.68315219681114 934.701443075707 423.68315219681114L934.701443075707 423.68315219681114Q940.3401483517666 423.68315219681114 944.490861957755 419.06254648448447Q948.6154704467247 414.4680458891766 951.617558903886 403.55610697532035L951.617558903886 403.55610697532035L955.3766957545924 404.49589118799696Q953.4971273292392 415.4078301018532 947.9628425212547 422.9261038032661Q942.4024525962515 430.444377504679 930.9423062250005 430.444377504679L930.9423062250005 430.444377504679Q924.5465525553958 430.444377504679 920.4219440664262 428.8519653665325Q916.2973355774567 427.2334481113672 913.0864061841448 424.23135965420585L913.0864061841448 424.23135965420585Q908.9617976951753 419.9240153461047 907.3693855570289 413.8937333147631Q905.7508683018635 407.8895564004403 905.7508683018635 397.91740169926067L905.7508683018635 397.91740169926067L905.7508683018635 334.95185944992767L887.7122324418764 334.95185944992767L887.7122324418764 331.1927225992212L905.7508683018635 331.1927225992212L905.7508683018635 302.45098876152815Q910.4497893652466 302.24214782537774 914.7832387903666 301.6939403679831Q919.1166882154864 301.11962779356963 922.6669841300426 299.81437194262986ZM1005.0025232073212 328.3733699611914L1005.0025232073212 328.3733699611914Q1017.0369821529857 328.3733699611914 1026.6175600988834 333.6466035989879Q1036.198138044781 338.8937321197657 1041.9412637889159 350.17114267188504Q1047.658284416032 361.44855322400434 1047.658284416032 379.51329420101035L1047.658284416032 379.51329420101035Q1047.658284416032 397.55193006099756 1041.9412637889159 408.7249201450417Q1036.198138044781 419.9240153461047 1026.6175600988834 425.17114386688246Q1017.0369821529857 430.444377504679 1005.0025232073212 430.444377504679L1005.0025232073212 430.444377504679Q993.1508000807885 430.444377504679 983.4919067838343 425.17114386688246Q973.8069083698615 419.9240153461047 968.0637826257267 408.7249201450417Q962.3467619986106 397.55193006099756 962.3467619986106 379.51329420101035L962.3467619986106 379.51329420101035Q962.3467619986106 361.44855322400434 968.0637826257267 350.17114267188504Q973.8069083698615 338.8937321197657 983.4919067838343 333.6466035989879Q993.1508000807885 328.3733699611914 1005.0025232073212 328.3733699611914ZM1005.0025232073212 332.1325068118978L1005.0025232073212 332.1325068118978Q994.2994252296155 332.1325068118978 987.4337794536725 343.2271815448856Q980.5681336777295 354.3218562778734 980.5681336777295 379.51329420101035L980.5681336777295 379.51329420101035Q980.5681336777295 404.6786270071285 987.4337794536725 415.6949863890599Q994.2994252296155 426.6852406539725 1005.0025232073212 426.6852406539725L1005.0025232073212 426.6852406539725Q1015.7056211850272 426.6852406539725 1022.5712669609702 415.6949863890599Q1029.4369127369132 404.6786270071285 1029.4369127369132 379.51329420101035L1029.4369127369132 379.51329420101035Q1029.4369127369132 354.3218562778734 1022.5712669609702 343.2271815448856Q1015.7056211850272 332.1325068118978 1005.0025232073212 332.1325068118978ZM1125.112166610796 328.3733699611914L1125.112166610796 328.3733699611914Q1132.238863556927 328.3733699611914 1137.0422050883853 330.2529383865446Q1141.8455466198436 332.1325068118978 1145.0303708961364 335.5261720243411L1145.0303708961364 335.5261720243411Q1148.6067719277114 339.2853088750476 1150.0947635977827 344.92401415110726Q1151.608860384873 350.56271942716694 1151.608860384873 360.1432973730646L1151.608860384873 360.1432973730646L1151.608860384873 410.3173322831882Q1151.608860384873 418.227182739883 1154.898105129241 421.04653537791285Q1158.187349873609 423.8658880159427 1165.8883593941537 423.8658880159427L1165.8883593941537 423.8658880159427L1165.8883593941537 427.8077606857807Q1162.7035351178606 427.62502486664914 1156.1250456291245 427.3378685794424Q1149.546556140388 427.0507122922357 1143.333538289915 427.0507122922357L1143.333538289915 427.0507122922357Q1137.1466255564605 427.0507122922357 1131.220763993194 427.3378685794424Q1125.2949024299278 427.62502486664914 1122.2928139727665 427.8077606857807L1122.2928139727665 427.8077606857807L1122.2928139727665 423.8658880159427Q1129.0540392806342 423.8658880159427 1131.8733919186639 421.04653537791285Q1134.692744556694 418.227182739883 1134.692744556694 410.3173322831882L1134.692744556694 410.3173322831882L1134.692744556694 356.01868888409507Q1134.692744556694 350.17114267188504 1133.752960344017 345.2894857893704Q1132.8131761313407 340.40782890685574 1129.5239313869724 337.40574044969435Q1126.2346866426042 334.40365199253296 1119.4734613347364 334.40365199253296L1119.4734613347364 334.40365199253296Q1111.5636108780418 334.40365199253296 1105.6638544317939 338.8937321197657Q1099.7379928685277 343.4099173640172 1096.4487481241595 351.2153473526368Q1093.1595033797912 359.0207773412564 1093.1595033797912 368.60135528715415L1093.1595033797912 368.60135528715415L1093.1595033797912 410.3173322831882Q1093.1595033797912 418.227182739883 1095.9788560178213 421.04653537791285Q1098.7982086558509 423.8658880159427 1105.559433963719 423.8658880159427L1105.559433963719 423.8658880159427L1105.559433963719 427.8077606857807Q1102.5573455065573 427.62502486664914 1096.631483943291 427.3378685794424Q1090.7056223800246 427.0507122922357 1084.5187096465702 427.0507122922357L1084.5187096465702 427.0507122922357Q1078.305691796097 427.0507122922357 1071.7272023073608 427.3378685794424Q1065.1487128186245 427.62502486664914 1061.9638885423315 427.8077606857807L1061.9638885423315 427.8077606857807L1061.9638885423315 423.8658880159427Q1069.664898062876 423.8658880159427 1072.9541428072441 421.04653537791285Q1076.2433875516122 418.227182739883 1076.2433875516122 410.3173322831882L1076.2433875516122 410.3173322831882L1076.2433875516122 351.50250363984355Q1076.2433875516122 343.04444572575403 1073.2412990944508 338.9981525878408Q1070.2131055202708 334.95185944992767 1061.9638885423315 334.95185944992767L1061.9638885423315 334.95185944992767L1061.9638885423315 331.00998678008966Q1067.9680654566544 331.5842993545031 1073.606770732714 331.5842993545031L1073.606770732714 331.5842993545031Q1079.0627401896422 331.5842993545031 1084.048817540232 330.90556631201446Q1089.008789773803 330.2529383865446 1093.1595033797912 328.9476825356049L1093.1595033797912 328.9476825356049L1093.1595033797912 351.1109268845616Q1098.041160262306 338.34552466237096 1106.7863744636022 333.35944731178114Q1115.5315886648984 328.3733699611914 1125.112166610796 328.3733699611914Z " fill="#fbf8be" transform="matrix(0.7505006696972529,0,0,0.7505006696972529,0,33.23875551752218)"/></g></svg>